name C:/MyDriveSym/Projects/mobilecap/Data\Session20210823_0002\mocap\ForceDataProcessed\walking1_forces.mot
datacolumns 19
datarows 22
range 0.00000000 0.01050000
endheader 
time	R_ground_force_vx	R_ground_force_vy	R_ground_force_vz	R_ground_force_px	R_ground_force_py	R_ground_force_pz	R_ground_torque_x	R_ground_torque_y	R_ground_torque_z	L_ground_force_vx	L_ground_force_vy	L_ground_force_vz	L_ground_force_px	L_ground_force_py	L_ground_force_pz	L_ground_torque_x	L_ground_torque_y	L_ground_torque_z	
          0.00000000	         15.86258900	        137.50001800	          3.56339400	          0.17199600	          0.00600000	         -0.14986900	          0.00000000	          0.05120300	          0.00000000	          0.00000000	          0.00000000	          0.00000000	          0.80729700	          0.00000000	         -0.26930300	          0.00000000	          0.00000000	          0.00000000	
          0.00050000	         14.88144600	        137.33479100	          3.57692400	          0.17199600	          0.00600000	         -0.14986900	          0.00000000	          0.06094500	          0.00000000	          0.00000000	          0.00000000	          0.00000000	          0.80729700	          0.00000000	         -0.26930300	          0.00000000	          0.00000000	          0.00000000	
          0.00100000	         13.88551500	        137.17868700	          3.59074500	          0.17199600	          0.00600000	         -0.14986900	          0.00000000	          0.07045500	          0.00000000	          0.00000000	          0.00000000	          0.00000000	          0.80729700	          0.00000000	         -0.26930300	          0.00000000	          0.00000000	          0.00000000	
          0.00150000	         12.87936900	        137.03367400	          3.60485500	          0.17199600	          0.00600000	         -0.14986900	          0.00000000	          0.07967500	          0.00000000	          0.00000000	          0.00000000	          0.00000000	          0.80729700	          0.00000000	         -0.26930300	          0.00000000	          0.00000000	          0.00000000	
          0.00200000	         11.86767200	        136.90174100	          3.61921800	          0.17216800	          0.00600000	         -0.14980900	          0.00000000	          0.08854400	          0.00000000	          0.00000000	          0.00000000	          0.00000000	          0.80729700	          0.00000000	         -0.26930300	          0.00000000	          0.00000000	          0.00000000	
          0.00250000	         10.85512100	        136.78490300	          3.63376700	          0.17234100	          0.00600000	         -0.14975100	          0.00000000	          0.09701000	          0.00000000	          0.00000000	          0.00000000	          0.00000000	          0.80729700	          0.00000000	         -0.26930300	          0.00000000	          0.00000000	          0.00000000	
          0.00300000	          9.84638900	        136.68516400	          3.64841000	          0.17251400	          0.00600000	         -0.14969300	          0.00000000	          0.10502700	          0.00000000	          0.00000000	          0.00000000	          0.00000000	          0.80729700	          0.00000000	         -0.26930300	          0.00000000	          0.00000000	          0.00000000	
          0.00350000	          8.84607200	        136.60447800	          3.66304300	          0.17268600	          0.00600000	         -0.14963600	          0.00000000	          0.11256100	          0.00000000	          0.00000000	          0.00000000	          0.00000000	          0.80729700	          0.00000000	         -0.26930300	          0.00000000	          0.00000000	          0.00000000	
          0.00400000	          7.85864000	        136.54472500	          3.67755700	          0.17285600	          0.00600000	         -0.14958000	          0.00000000	          0.11958200	          0.00000000	          0.00000000	          0.00000000	          0.00000000	          0.80729700	          0.00000000	         -0.26930300	          0.00000000	          0.00000000	          0.00000000	
          0.00450000	          6.88839300	        136.50770700	          3.69183200	          0.17302400	          0.00600000	         -0.14952600	          0.00000000	          0.12607000	          0.00000000	          0.00000000	          0.00000000	          0.00000000	          0.80729700	          0.00000000	         -0.26930300	          0.00000000	          0.00000000	          0.00000000	
          0.00500000	          5.93942500	        136.49514400	          3.70572800	          0.17318800	          0.00600000	         -0.14947300	          0.00000000	          0.13200900	          0.00000000	          0.00000000	          0.00000000	          0.00000000	          0.80729700	          0.00000000	         -0.26930300	          0.00000000	          0.00000000	          0.00000000	
          0.00550000	          5.01558500	        136.50866300	          3.71908300	          0.17334700	          0.00600000	         -0.14942100	          0.00000000	          0.13738700	          0.00000000	          0.00000000	          0.00000000	          0.00000000	          0.80729700	          0.00000000	         -0.26930300	          0.00000000	          0.00000000	          0.00000000	
          0.00600000	          4.12045100	        136.54979100	          3.73170400	          0.17350300	          0.00600000	         -0.14937100	          0.00000000	          0.14219000	          0.00000000	          0.00000000	          0.00000000	          0.00000000	          0.80729700	          0.00000000	         -0.26930300	          0.00000000	          0.00000000	          0.00000000	
          0.00650000	          3.25730100	        136.61995700	          3.74337500	          0.17365300	          0.00600000	         -0.14932200	          0.00000000	          0.14640500	          0.00000000	          0.00000000	          0.00000000	          0.00000000	          0.80729700	          0.00000000	         -0.26930300	          0.00000000	          0.00000000	          0.00000000	
          0.00700000	          2.42909900	        136.72051500	          3.75386000	          0.17379700	          0.00600000	         -0.14927400	          0.00000000	          0.15001400	          0.00000000	          0.00000000	          0.00000000	          0.00000000	          0.80729700	          0.00000000	         -0.26930300	          0.00000000	          0.00000000	          0.00000000	
          0.00750000	          1.63849700	        136.85274000	          3.76292300	          0.17393700	          0.00600000	         -0.14922700	          0.00000000	          0.15300100	          0.00000000	          0.00000000	          0.00000000	          0.00000000	          0.80729700	          0.00000000	         -0.26930300	          0.00000000	          0.00000000	          0.00000000	
          0.00800000	          0.88782500	        137.01782500	          3.77034400	          0.17407000	          0.00600000	         -0.14918200	          0.00000000	          0.15536100	          0.00000000	          0.00000000	          0.00000000	          0.00000000	          0.80729700	          0.00000000	         -0.26930300	          0.00000000	          0.00000000	          0.00000000	
          0.00850000	          0.17908800	        137.21685600	          3.77593100	          0.17419800	          0.00600000	         -0.14913700	          0.00000000	          0.15709100	          0.00000000	          0.00000000	          0.00000000	          0.00000000	          0.80729700	          0.00000000	         -0.26930300	          0.00000000	          0.00000000	          0.00000000	
          0.00900000	         -0.48605800	        137.45078600	          3.77952000	          0.17432000	          0.00600000	         -0.14909300	          0.00000000	          0.15819800	          0.00000000	          0.00000000	          0.00000000	          0.00000000	          0.80729700	          0.00000000	         -0.26930300	          0.00000000	          0.00000000	          0.00000000	
          0.00950000	         -1.10630700	        137.72041100	          3.78096100	          0.17443700	          0.00600000	         -0.14905100	          0.00000000	          0.15868900	          0.00000000	          0.00000000	          0.00000000	          0.00000000	          0.80729700	          0.00000000	         -0.26930300	          0.00000000	          0.00000000	          0.00000000	
          0.01000000	         -1.68070600	        138.02634600	          3.78010700	          0.17454800	          0.00600000	         -0.14900800	          0.00000000	          0.15857300	          0.00000000	          0.00000000	          0.00000000	          0.00000000	          0.80729700	          0.00000000	         -0.26930300	          0.00000000	          0.00000000	          0.00000000	
          0.01050000	         -2.20866300	        138.36901900	          3.77681000	          0.17465400	          0.00600000	         -0.14896700	          0.00000000	          0.15786100	          0.00000000	          0.00000000	          0.00000000	          0.00000000	          0.80729700	          0.00000000	         -0.26930300	          0.00000000	          0.00000000	          0.00000000	
